<svg width="631" height="716" viewBox="0 0 631 716" fill="none" xmlns="http://www.w3.org/2000/svg">
<path fill-rule="evenodd" clip-rule="evenodd" d="M121.113 409.124L122.841 412.752L122.668 421.045L128.37 424.155L132.516 426.747L136.317 424.155L136.49 423.982H136.663L142.364 424.328L148.584 420.527L149.275 416.035V415.517H149.621L156.532 416.553L160.16 415.344H160.505L160.678 415.517L163.27 421.045L169.317 423.119L170.699 421.909L171.217 415.171L167.243 412.234L167.071 412.061V411.888L166.725 407.569L164.306 405.15L160.505 402.386H160.333V402.04L160.851 395.475L153.249 389.601L153.076 389.428V389.255L152.385 384.763L149.448 383.554L149.275 383.381V383.036V380.271L148.066 378.198L143.746 378.025L143.055 379.753V379.926H142.71L140.982 380.271H140.809L140.637 380.098L139.427 378.716H137.527L134.762 381.308V385.973V386.145V386.318L133.035 388.564L134.417 389.601L134.59 389.774V389.946L134.762 392.365V392.711H134.417L131.307 392.538L129.925 394.784L130.789 398.931V399.103V399.276L121.113 409.124Z" fill="#1B325E"/>
<path fill-rule="evenodd" clip-rule="evenodd" d="M106.255 363.512L103.145 367.659L101.417 370.077L102.108 373.533L105.564 375.088L105.045 380.271L113.684 385.627L113.857 395.648L120.595 408.433L129.924 398.93L129.061 394.784V394.611L129.233 394.438L130.615 392.019L130.788 391.674H130.961L133.898 391.847L133.725 390.119L132.17 388.909L131.825 388.737L132.17 388.391L133.898 385.8V381.135L127.678 374.915L121.631 373.533H121.459L116.966 370.596V370.423L116.794 370.25L115.757 366.622L113.511 366.276L111.265 367.486L111.092 367.659L110.919 367.486L106.255 363.512Z" fill="#E46450"/>
<path fill-rule="evenodd" clip-rule="evenodd" d="M112.302 341.57L108.501 343.298L106.6 346.926L104.009 347.617L103.663 352.109L107.637 354.355L106.6 362.648L111.265 366.622L113.338 365.413H113.511L116.103 365.931H116.448V366.104L117.658 369.905L121.804 372.669L128.024 374.051H128.197V374.224L134.417 380.444L137.181 378.025V377.852H137.354H139.6H139.772L139.945 378.025L141.155 379.407L142.364 379.235L143.055 377.507L140.291 373.879V373.706V373.533L139.945 369.905L137.008 369.041L136.835 368.868H136.663L135.799 366.968V366.795V366.622V363.685L134.417 361.785V361.612V355.047L124.568 342.089L112.302 341.57Z" fill="#E46450"/>
<path fill-rule="evenodd" clip-rule="evenodd" d="M126.124 311.508L119.904 310.989L115.412 306.67L115.93 302.696L111.611 301.833L109.192 307.88L100.208 315.482L100.899 320.492L105.564 320.319L109.192 323.256L110.574 329.476L114.548 328.958L119.386 329.994V333.104L113.339 340.879L124.569 341.225L138.563 331.031L137.354 329.303V329.13V326.884V326.712L137.527 326.539L139.082 324.811H139.254L141.501 323.429L141.328 321.529L138.391 321.356L137.008 322.565L136.663 322.738L136.49 322.565L134.071 321.183H133.899V321.01L132.344 318.073L132.171 317.9V315.136V314.963L133.553 312.372L126.988 312.026H126.815V311.853L126.124 311.508Z" fill="#E46450"/>
<path fill-rule="evenodd" clip-rule="evenodd" d="M145.819 273.325L144.783 275.053L137.354 279.372L133.553 285.592L129.406 293.885L129.061 300.623L130.097 304.597L127.16 308.225L126.987 311.162H127.16L134.244 311.681L137.181 310.299H137.354L142.882 310.471L145.992 307.534H146.165H146.338L150.484 307.707H150.657L150.83 308.052L152.558 314.099L154.113 313.063H154.285L157.395 313.581H157.568L157.741 313.754L159.296 315.827L167.243 315.136L172.081 312.026L177.437 304.251L177.61 302.524L173.981 298.032L173.809 297.859L173.29 293.712L164.306 292.157H164.133V291.985L159.814 288.875H159.641V288.702L153.767 277.817L152.039 273.498L150.312 272.461L146.683 273.498H146.511L145.819 273.325Z" fill="#E46450"/>
<path fill-rule="evenodd" clip-rule="evenodd" d="M125.26 341.743L135.108 354.528L135.281 354.701V354.874V361.439L136.663 363.167V363.339V363.512V366.622L137.354 368.35L140.464 369.214L144.956 369.386L146.338 366.968V366.795H146.511L155.149 359.884L156.013 352.8L152.212 349.345V349.172L150.312 345.026H150.139V344.853L150.484 337.769L139.082 331.722L125.26 341.743Z" fill="#1B325E"/>
<path fill-rule="evenodd" clip-rule="evenodd" d="M155.495 360.575L147.029 367.486L145.474 370.077V370.25H145.128L140.809 370.077L140.982 373.36L143.746 377.161L148.411 377.334H148.584L148.757 377.679L149.966 379.925L150.139 380.098V382.863L152.903 384.245H153.076V384.417L153.94 389.082L161.196 394.784L164.824 393.056L165.861 390.81L165.17 387.182L164.133 385.109V384.936L164.306 384.763L165.688 381.999L165.861 381.826H166.034L172.254 378.889L176.055 375.433V371.287L175.191 368.522L171.908 365.931H171.735V365.758L170.699 362.821L167.416 362.475L162.578 364.894H162.406H162.233L158.777 364.549H158.605L158.432 364.376L155.495 360.575Z" fill="#E46450"/>
<path fill-rule="evenodd" clip-rule="evenodd" d="M176.919 375.088L176.746 375.606V375.779V375.952L172.772 379.58L166.379 382.517L164.997 384.936L166.034 387.009L166.725 390.81V390.983L166.552 391.156L165.516 393.575V393.747H165.343L161.542 395.475L161.196 401.868L164.824 404.632L167.416 407.051L167.589 407.224V407.396L167.934 411.716L171.735 414.48L177.264 413.616L188.321 407.915L189.704 405.842L189.876 396.685L190.913 390.292V390.119L195.923 384.418L191.95 380.099L189.704 381.653H189.531L187.458 382.172L187.285 382.345V382.172L184.175 380.444L184.002 380.271L181.238 375.261L176.919 375.088Z" fill="#1B325E"/>
<path fill-rule="evenodd" clip-rule="evenodd" d="M151.348 337.769L151.003 344.853L152.903 348.827L156.704 352.282L156.877 352.455V352.628L155.841 359.884L158.95 363.685L162.233 364.031L167.243 361.612H167.416L170.699 361.957L170.872 360.057L171.044 359.884L173.291 356.774L177.783 351.937V348.999V348.827L177.955 348.654L180.547 345.89L180.029 340.361L176.746 338.46V338.288H176.573L175.191 335.351L168.28 335.696L166.725 337.597L166.38 337.942L166.207 337.769L160.16 334.141L158.432 333.623L151.348 337.769Z" fill="#1B325E"/>
<path fill-rule="evenodd" clip-rule="evenodd" d="M178.301 352.455L173.981 357.292L171.735 360.402L171.39 362.303L172.426 365.413L175.882 368.004L176.054 368.177L176.918 371.114V371.287V374.224L181.583 374.397H181.756L181.929 374.57L184.693 379.753L187.457 381.308L189.185 380.789L191.777 379.235L192.122 379.062L192.295 379.235L196.614 384.072L199.551 385.109L202.143 384.936L210.782 377.161L215.447 374.051L214.41 371.114L212.509 366.277L203.698 351.418L198.342 351.073L196.442 352.8L196.269 352.973L195.923 352.8L193.85 351.418L191.604 349.863L190.567 350.727V350.9H190.395L186.766 351.764L186.594 351.937L186.421 351.764L184.348 350.9L182.793 352.282H182.62L178.301 352.455Z" fill="#1B325E"/>
<path fill-rule="evenodd" clip-rule="evenodd" d="M175.191 334.487L176.573 332.932L178.646 329.822V322.911L175.363 321.183L175.191 321.01L172.772 317.037L172.081 313.063L167.589 315.827H167.416L159.123 316.691H158.777L158.604 316.518L157.049 314.272L154.458 313.927L152.557 314.963L152.039 315.309L151.866 314.791L150.139 308.571L146.338 308.398L143.4 311.162L143.228 311.335H143.055L137.353 311.162L134.589 312.372L133.034 315.309V317.728L134.589 320.492L136.662 321.701L138.045 320.665L138.217 320.492H138.39L141.673 320.665L142.018 320.838V321.01L142.364 323.602L142.537 323.775L142.191 323.947L139.6 325.502L138.217 327.057V328.958L139.427 330.858L150.83 336.905L158.259 332.759L158.432 332.586L158.604 332.759L160.505 333.277L166.206 336.733L167.761 335.005L167.934 334.832H168.107L175.191 334.487Z" fill="#1B325E"/>
<path fill-rule="evenodd" clip-rule="evenodd" d="M172.772 312.372L173.463 316.691L175.882 320.492L179.165 322.393H179.51V322.738V329.995V330.167L179.337 330.34L177.264 333.277L175.882 335.005L177.264 337.769L180.719 339.843L180.892 340.015V340.188L181.411 346.062V346.235L181.238 346.408L178.646 349.172V351.764L182.447 351.418L184.002 350.036L184.175 349.863L184.348 350.036L186.594 350.9L190.222 350.036L191.431 349.172L191.604 348.827L191.95 349L194.196 350.727L196.096 351.937L197.824 350.382L197.997 350.209H198.169L203.698 350.555L205.771 347.272L207.326 343.298L205.944 342.089V341.916L203.353 338.806V338.633L201.279 332.586V332.413V332.241L202.662 327.921L202.834 327.749L207.499 322.393L210.263 319.801L210.955 316.518L207.326 312.199L198.688 312.372H198.515L198.342 312.199L188.84 306.152L188.667 305.979V305.807L188.84 302.178L187.803 301.487L186.767 302.524L186.594 302.697L178.301 303.733V304.597L178.128 304.77L172.772 312.372Z" fill="#E46450"/>
<path fill-rule="evenodd" clip-rule="evenodd" d="M210.263 320.838L208.017 322.911L203.525 328.267L202.143 332.413L204.044 338.288L206.462 341.398L208.017 342.78L208.19 342.952V343.298L206.635 347.617V347.79L204.389 350.9L213.028 365.586L219.075 361.957L219.247 361.785L227.022 361.612L235.315 356.601L233.588 351.591L225.467 341.052L221.321 339.324H221.148V339.151L218.038 335.869L217.865 335.523L218.038 335.351L220.284 332.241L221.321 328.44L219.42 326.539L215.274 329.822L214.928 330.167L214.583 329.822L210.782 325.675L210.609 325.502V325.33L210.263 320.838Z" fill="#1B325E"/>
<path fill-rule="evenodd" clip-rule="evenodd" d="M221.494 327.403L222.012 327.921L222.185 328.094V328.267L221.148 332.586H220.976L218.902 335.523L221.667 338.633L225.813 340.361H225.986V340.534L234.279 351.073V351.245H234.452L236.18 356.256L238.771 355.738L240.844 352.8L241.017 352.628H241.19L246.2 352.282H246.373L246.546 352.455L248.446 354.183L251.556 352.455L252.593 341.57L247.583 338.806L247.41 338.633V338.46L247.064 333.968L244.818 331.895L241.19 333.104H241.017H240.844L228.75 326.539L221.494 327.403Z" fill="#1B325E"/>
<path fill-rule="evenodd" clip-rule="evenodd" d="M233.761 328.44L241.017 332.241L244.818 331.031L244.991 330.859L245.164 331.031L247.755 333.45H247.928V333.623L248.101 338.115L253.111 340.879L253.457 341.052V341.225L252.42 352.282L267.451 352.455L269.179 351.246L269.352 351.073H269.525L274.362 351.246H274.708V351.591L276.09 355.392L280.064 357.12H280.236L283.692 360.575L289.048 355.047L289.221 354.874H289.393L302.87 355.219L303.042 346.754V346.581L303.215 346.408L305.807 343.644L302.87 340.707L295.786 342.434H295.613H295.44L284.728 336.215V336.042H284.556L278.163 324.121L268.488 318.246L253.63 317.555L248.619 321.011L248.446 321.183H248.274L242.572 321.356L240.844 324.121H240.672L233.761 328.44Z" fill="#1B325E"/>
<path fill-rule="evenodd" clip-rule="evenodd" d="M211.473 315.827L217.866 313.063L217.002 309.953V309.78L218.902 299.068L219.075 298.723H219.421L224.949 299.068L231.86 292.33L230.996 284.21H224.258L224.085 284.728L223.567 284.21L215.965 277.472L211.473 277.645L211.3 277.817L211.127 277.645L205.772 273.153L205.599 272.98L204.735 269.006L200.761 266.242L199.206 267.278L198.515 270.907V271.425L198.17 271.252L188.149 270.561L187.976 270.388L184.693 267.451L175.018 264.86H174.845L169.662 261.231V261.059L166.898 258.467L164.306 261.059L162.751 267.451V267.624L159.814 271.943V272.116H159.641L152.903 273.498L154.631 277.472L160.333 288.184L164.479 291.294L173.809 293.021H174.154V293.367L174.673 297.513L178.474 302.006V302.178V302.351V302.869L186.248 301.833L187.285 300.796L187.63 300.623H187.803L189.531 301.487L189.704 301.66V301.833L189.531 305.634L198.688 311.508L207.499 311.335H207.672L207.845 311.508L211.473 315.827Z" fill="#1B325E"/>
<path fill-rule="evenodd" clip-rule="evenodd" d="M252.766 317.037L247.41 311.854L247.237 311.681V311.335L249.31 303.733L245.336 298.723L241.881 298.896H241.708H241.535L232.378 293.021L225.468 299.76L225.295 299.932H225.122L219.766 299.587L217.866 309.953L218.729 313.063L218.902 313.409L218.557 313.581L211.819 316.691L211.127 319.974L211.473 325.157L214.928 328.958L219.075 325.503L219.421 325.33L219.766 325.675L220.803 326.712L228.75 325.675H228.923V325.848L232.897 327.921L240.153 323.429L241.881 320.665L242.054 320.492H242.226L248.101 320.319L252.766 317.037Z" fill="#1B325E"/>
<path fill-rule="evenodd" clip-rule="evenodd" d="M242.745 478.406L242.399 483.589L245.164 489.981L248.274 489.463L250.52 487.39L255.357 489.636L255.012 492.746L253.802 495.683L255.357 497.583L259.849 499.138L261.577 505.358L263.478 513.306L261.404 518.316L263.478 522.29L268.661 519.18L270.907 519.871L272.462 523.154L273.498 529.028L276.954 531.619L280.928 528.855L284.901 529.028L291.985 532.31L291.812 535.593L293.367 538.357L296.995 539.049L299.932 535.766L303.042 539.049L307.189 541.467L306.325 547.86L307.189 551.488L311.163 555.98L314.618 557.017L318.074 554.944L320.665 555.98L322.738 559.954L331.031 562.718L334.66 559.954L338.288 554.771L331.895 540.776L331.377 540.431H331.204V540.258L329.822 536.111L329.649 535.766L329.995 535.593L333.45 532.829L334.141 530.41L332.586 526.609L323.602 523.845L319.456 525.054L317.21 530.064V530.41H316.864L311.508 529.892L311.335 529.719H311.163L306.325 524.708L297.168 522.635H296.995L296.823 522.462L294.922 518.661L294.749 518.316L294.922 518.143L298.55 514.342L296.304 512.096L296.131 511.923V511.751L296.304 509.332V508.986H296.65L299.932 507.95L300.278 502.421L295.613 502.766L293.367 504.149L292.676 504.667V503.976L291.812 497.41V497.065L292.158 496.892L294.231 496.028L294.404 492.227L292.331 489.809L292.158 489.636V489.463L292.503 480.306L289.912 476.678V476.505V464.238L287.32 458.71V458.537L288.53 453.526L285.247 449.898L285.074 450.417V450.589L283.519 456.118H283.346L282.137 458.537V458.71H281.964L272.289 464.066L270.043 468.558L269.87 468.73H269.697L263.132 470.804L259.677 471.322L252.938 477.196H252.766V477.369L242.918 478.06L242.745 478.406Z" fill="#1B325E"/>
<path fill-rule="evenodd" clip-rule="evenodd" d="M195.232 474.432L199.552 478.579L199.206 483.071L197.997 486.699L200.416 491.191L205.426 488.945L208.018 483.934L210.955 480.825L217.866 482.207L221.667 478.924L224.431 478.751L226.504 480.306L233.415 479.961L238.598 478.579L242.054 477.715L242.226 477.542L242.399 474.432L242.054 471.84L238.598 466.83V466.657L239.117 460.61L235.143 455.773V455.6L233.588 449.898L233.415 446.616L230.132 445.579L220.63 440.396L220.284 440.223V440.05V434.867L210.782 433.312V433.139L200.761 427.438L200.588 427.265V426.92V423.81L199.206 421.391L194.369 420.873H194.196L194.023 420.7L186.939 409.47L177.61 414.307H177.437L171.908 415.344L171.563 422.255V422.428H171.39L169.835 423.81L170.353 429.166L173.118 432.967L177.437 433.831H177.61V434.003L185.212 441.26L185.384 441.433V441.605V447.134V447.307L185.212 447.48L181.929 451.281L181.756 454.909L184.348 455.082L187.458 453.699L188.149 453.527V454.045L188.322 460.265L190.222 463.029L194.714 463.893H195.06V464.238L195.232 474.432Z" fill="#1B325E"/>
<path fill-rule="evenodd" clip-rule="evenodd" d="M234.279 446.615L234.452 449.725L235.834 455.254L239.808 460.264H239.98V460.437L239.462 466.484L242.745 471.495H242.917V471.667L243.263 474.432L243.09 477.196L252.42 476.505L259.158 470.631L259.331 470.458H259.504L262.959 469.94L269.352 468.039L271.598 463.547H271.77V463.374L281.446 458.018L282.655 455.772L284.383 450.244L284.901 447.825L280.063 440.914L278.163 439.013L275.917 440.568H275.744L273.844 440.914L273.498 441.087L273.325 440.741L269.524 435.212L268.315 436.076L263.477 441.26H263.304L260.54 442.987L260.367 443.16L260.195 442.987L256.566 442.123H256.394L250.865 437.113L247.064 434.349L243.608 434.867L237.907 435.558L235.661 438.841L235.488 440.223L237.389 441.087L237.561 441.26V441.605L236.87 445.233V445.579H236.698L234.279 446.615Z" fill="#1B325E"/>
<path fill-rule="evenodd" clip-rule="evenodd" d="M220.976 434.694L221.148 439.878L230.478 444.888L233.761 445.925L236.18 444.888L236.698 441.778L234.97 440.742H234.625V440.396L234.797 438.668V438.495V438.323L237.389 434.867V434.694H237.562L243.609 434.003L247.237 433.485H247.41V433.658L251.383 436.422V436.595L256.912 441.433L260.195 442.124L262.959 440.569L267.797 435.558V435.386L269.006 434.522L265.378 430.03L265.205 429.857L265.378 429.511L266.933 427.784L266.587 423.983L259.331 423.464H259.158L258.985 423.292L254.839 417.417L249.656 417.072H249.483L249.31 416.899L247.41 412.061L241.708 405.323L240.844 406.187L239.98 411.37H239.808V411.543L238.598 413.444L238.426 413.616H238.08L229.269 410.506V419.663V419.836L227.368 422.082L228.923 425.192L229.096 425.365V425.538L228.232 427.784V427.956L220.976 434.694Z" fill="#1B325E"/>
<path fill-rule="evenodd" clip-rule="evenodd" d="M201.97 385.8L199.552 385.973H199.379V385.8L196.615 384.936L191.777 390.638L190.74 396.685L190.568 406.014V406.187L190.395 406.36L189.013 408.433H188.84V408.606L187.63 409.124L194.714 420.009L199.552 420.527H199.724V420.7L201.279 423.464H201.452V423.637V426.747L211.127 432.448L220.457 434.003L227.541 427.438L228.232 425.537L226.504 422.082L226.331 421.909L226.504 421.736L228.405 419.49V410.334L225.122 410.161H224.949L224.776 409.815L222.358 404.805L217.002 403.768L215.274 405.323L214.756 405.669L214.583 405.323L211.3 399.622H211.127V399.449L210.609 393.229H204.908H204.735L204.562 393.056L201.97 385.8Z" fill="#1B325E"/>
<path fill-rule="evenodd" clip-rule="evenodd" d="M215.792 374.742L211.3 377.852L202.834 385.454L205.253 392.538H211.128H211.473V392.883L211.991 399.276L215.101 404.459L216.656 403.077L216.829 402.904H217.002L222.703 403.941H223.049V404.286L225.468 409.297L228.405 409.469V409.297L229.096 409.469L238.08 412.752L239.117 411.024L240.153 406.014V405.841L241.363 404.459L243.263 401.349V399.103L240.844 397.721L240.672 397.548V397.375L240.326 394.784L238.771 393.92L237.907 395.129L237.734 395.302H237.562L231.515 395.648L230.824 397.375L230.651 397.548H230.305L227.195 397.03H227.023V396.857L223.74 390.81V390.637L222.876 381.653L215.792 374.742Z" fill="#1B325E"/>
<path fill-rule="evenodd" clip-rule="evenodd" d="M244.127 399.103V401.522H243.954V401.695L242.227 404.632L248.101 411.543V411.715L248.965 413.789L253.284 412.579H253.457L259.158 411.715L259.677 407.223L259.849 407.051H260.022L262.959 405.323L269.006 403.768L269.525 398.93L267.97 390.119L256.739 386.491L250.174 388.391L249.656 394.957V395.129L249.483 395.302L244.127 399.103Z" fill="#1B325E"/>
<path fill-rule="evenodd" clip-rule="evenodd" d="M213.546 366.276L215.101 370.768L216.311 373.878L223.567 381.308V381.48L224.604 390.464L227.541 396.339L230.132 396.684L230.824 395.129L230.996 394.784H231.169L237.389 394.611L238.253 393.056L238.426 392.71L238.771 392.883L240.844 394.093H241.017V394.438L241.363 397.03L243.781 398.412L248.792 394.784L249.483 387.873V387.7L249.656 387.527L256.221 385.8L256.567 375.952V375.606H256.912L262.959 375.26L266.069 372.669L266.242 372.496L266.587 372.669L272.98 376.643L277.99 369.732L278.163 369.386L278.509 369.559L284.556 373.878L288.702 371.978L290.603 369.905L286.974 365.24L279.718 357.811L275.572 356.083L275.399 355.91V355.737L274.017 352.109L269.525 351.936L267.797 353.146L267.624 353.318H267.451L252.075 353.146L248.619 355.219H248.274L248.101 355.046L246.028 353.146L241.363 353.491L239.462 356.256L239.289 356.428H239.117L236.007 357.119L227.368 362.303L227.195 362.475H227.023L219.421 362.648L213.546 366.276Z" fill="#1B325E"/>
<path fill-rule="evenodd" clip-rule="evenodd" d="M272.634 377.507L266.415 373.533L263.305 375.952L263.132 376.125L257.43 376.297L257.085 385.8L268.488 389.428H268.661V389.774L270.388 398.758V398.93L269.87 403.423L272.807 402.213H272.98L282.482 401.004V400.831L282.655 401.004L289.393 403.077H289.566V403.25L291.639 406.705L295.095 403.595L294.922 395.993L293.367 392.365L288.702 387.182L276.954 385.109H276.781L274.017 382.863L273.844 382.69L272.634 377.507Z" fill="#1B325E"/>
<path fill-rule="evenodd" clip-rule="evenodd" d="M295.095 404.632L291.812 407.742L291.466 408.087L291.294 407.569L288.875 403.768L282.482 401.695L273.153 403.077L269.697 404.459H269.524L263.305 406.014L260.54 407.569L259.849 412.234V412.579H259.504L253.457 413.271L249.31 414.48L250.001 416.208L255.184 416.553H255.357L255.53 416.726L259.676 422.6L267.106 423.119H267.451V423.464L267.797 427.956V428.129L266.242 429.857L269.697 434.003L269.87 434.349L273.844 440.05L275.571 439.705L277.817 438.15L278.163 437.977L278.336 438.15L280.755 440.223V440.396L285.765 447.479V447.652V447.825L285.419 448.862L289.22 453.181L289.393 453.354V453.526L288.184 458.537L290.603 463.72H291.639L293.021 460.437L294.922 456.291L295.095 456.118H295.267H298.377H298.55L298.723 456.291L302.869 458.882L303.733 457.5L303.042 452.835L300.105 449.898L299.932 449.725V449.553L300.623 445.061L300.796 444.542H301.142L308.744 445.579L314.963 443.506L315.827 438.495L313.581 438.15L313.408 437.977L311.854 436.249L311.681 435.904L312.026 435.558L315.309 433.139L315.482 432.103L312.545 431.757H312.372L312.199 431.412L311.854 429.511V429.338L313.581 426.401L312.545 425.537L307.016 428.474L306.843 428.647H306.67L300.105 427.265H299.932L299.759 427.092L296.995 422.6L295.267 417.072L295.095 404.632Z" fill="#1B325E"/>
<path fill-rule="evenodd" clip-rule="evenodd" d="M296.995 419.663L297.859 422.255L300.451 426.574L306.67 427.784L312.372 424.674L312.545 424.501L312.717 424.674L314.272 425.883L314.618 426.056L314.445 426.401L312.717 429.511L313.063 430.893L316 431.412H316.346V431.757L316.173 433.485L316 433.658V433.831L312.89 436.077L313.927 437.286L316.346 437.632H320.319L324.293 434.003V425.019V424.501L324.811 424.674L328.44 424.846L332.241 420.7L334.487 414.653V414.48H334.659L338.288 410.506L342.434 399.794L340.361 398.067H340.188L337.769 395.302L334.487 395.821H334.314L334.141 395.648L329.649 391.674L322.911 391.329L322.738 393.747L322.393 397.03V397.203L322.22 397.376L317.382 401.349L317.209 401.522H317.037L313.063 399.622L310.126 399.449L307.016 410.506V410.852H306.67L300.105 411.888L296.995 419.663Z" fill="#1B325E"/>
<path fill-rule="evenodd" clip-rule="evenodd" d="M324.811 434.694L320.665 438.322V438.495H320.492H316.691L315.827 443.851V444.197H315.482L308.916 446.27V446.443H308.744L301.487 445.579L300.796 449.553L303.733 452.317L303.906 452.49V452.663L304.597 457.5V457.673V457.846L303.215 459.573L303.042 459.919L302.697 459.746L298.377 456.982H295.613L293.885 460.783L292.33 464.238L292.158 464.584H291.812H290.775V476.332L293.194 479.96H293.367V480.133L293.021 489.29L295.267 491.709V491.882V492.055L295.095 496.374V496.719H294.749L292.676 497.583L293.367 503.112L295.267 501.903H295.44L300.623 501.557H301.142V502.075L300.623 508.295V508.641L300.451 508.813L297.168 509.677L296.995 511.578L299.414 514.169L299.76 514.342L299.414 514.688L295.786 518.489L297.513 521.944L306.498 524.017H306.67H306.843L311.681 529.028L316.518 529.546L318.764 524.536V524.363L318.937 524.19L323.257 523.153L323.775 519.353L324.293 515.379L324.466 515.033H324.639L329.995 513.824L330.686 509.505V509.332L335.178 501.73V501.557H335.351L342.78 497.238H343.125H343.298L346.926 499.311H348.827L350.209 494.473V494.128H350.382L354.183 492.918L356.256 491.363L353.319 488.254L351.591 489.117L348.827 490.5V490.672L348.654 490.5L336.56 486.699V486.526L333.796 484.28H333.623V484.107L330.513 477.023L330.34 476.851V476.678L331.895 472.531V472.359H332.068L337.769 468.903V468.73L337.942 468.903L341.052 469.076H341.225L341.398 469.249L343.989 472.531V472.704V472.877L344.162 478.233L346.408 480.133L349.345 478.751H349.518L352.282 478.924H352.455V479.097L354.355 480.306V480.479L358.675 484.453L360.575 483.416L361.957 480.652L359.366 477.196V477.023L359.02 474.259V474.086V473.913L361.785 468.903L362.303 464.757L360.057 464.411L352.282 460.956H352.109L348.827 458.191L348.654 458.018L347.445 454.39L344.335 455.254H343.989L343.816 455.081L342.434 453.008V452.835L341.916 449.38L341.398 447.307L337.769 446.443H337.597L337.424 446.097L337.078 441.432L328.785 441.087H328.44V440.741V434.521L324.811 434.694Z" fill="#1B325E"/>
<path fill-rule="evenodd" clip-rule="evenodd" d="M350.382 363.339L344.853 365.758L344.68 365.931L344.507 365.758L328.785 359.711L323.429 365.758L323.084 366.104L322.738 365.758L320.319 363.685H320.146V363.512V354.01L318.764 350.9V350.554L318.937 350.381L331.549 336.214L331.031 330.167L327.403 325.675L322.393 326.539L315.309 331.204H315.136H314.963L308.571 331.031L307.707 333.277L312.199 337.596L312.544 337.769L312.199 338.115L306.67 343.816L303.906 346.926L303.56 355.565V356.083L303.215 355.91L289.566 355.737L284.21 361.266L287.665 364.722L291.466 369.559L291.639 369.905L291.466 370.25L289.22 372.669V372.842L284.728 374.742L284.383 374.915L284.21 374.742L278.336 370.423L273.498 377.334L274.535 382.344L277.126 384.418L289.048 386.491H289.22V386.664L294.058 391.847V392.019L295.613 395.82H295.786V395.993L295.958 403.768V403.941L296.131 416.899L296.649 418.454L299.414 411.37V411.024H299.759L306.325 409.988L309.435 398.93V398.585H309.78L313.236 398.758L313.408 398.93L317.037 400.658L321.529 396.857L322.047 393.747V390.983V390.465H322.565L329.994 390.81L330.167 390.983L334.487 394.957L337.769 394.266H338.115L338.288 394.438L340.879 397.548L342.952 399.103L346.408 395.129L348.999 391.501L345.889 388.91V388.737V388.564V384.072V383.899L346.062 383.726L357.811 378.716L357.292 372.496L350.382 363.339Z" fill="#1B325E"/>
<path fill-rule="evenodd" clip-rule="evenodd" d="M611.094 237.907L614.204 238.253L614.895 236.007L612.822 233.76L610.23 234.624L611.094 237.907Z" fill="#1B325E"/>
<path fill-rule="evenodd" clip-rule="evenodd" d="M621.115 253.975L624.916 255.357L628.717 254.666L627.162 248.965L622.497 251.556L621.115 253.975Z" fill="#1B325E"/>
<path fill-rule="evenodd" clip-rule="evenodd" d="M629.926 256.912L625.434 257.085L623.188 265.205L615.759 258.467L613.686 265.378L621.461 274.017L621.979 281.446L607.639 268.661L607.12 260.54L613.167 253.111L614.031 241.017L611.613 242.226L608.675 250.347L604.183 254.321L599.519 255.703L594.854 262.441L595.199 280.409L584.142 297.686L584.833 308.225H596.063L605.393 319.283V329.995L598.827 337.769L600.555 341.398L605.738 344.335L596.063 346.581L593.299 336.56L600.555 323.775L597.445 314.445L586.388 312.717L580.341 318.592L579.65 331.895L569.456 342.261L560.127 345.717L553.907 352.455L532.656 339.497V333.105L546.823 339.67L554.425 336.733L566.346 328.958L574.467 312.717L573.084 304.079L586.733 271.252L588.461 265.723L586.733 258.294L595.89 249.656L597.618 237.734L590.707 228.405L597.791 227.541L596.754 218.729L589.671 218.211L589.152 224.604L590.707 228.405L586.215 226.677L579.304 231.86L571.184 242.226L564.964 248.273L555.462 250.52L550.451 255.357L555.462 261.75L550.106 271.598L542.677 273.844L542.331 277.126L548.896 283.865L546.65 290.257L547.86 294.231L550.279 297.859L541.985 305.634L539.221 301.314L536.975 291.639L528.164 277.472L523.153 281.618L526.09 286.974L526.263 287.147L526.09 287.32L519.871 298.377L522.289 306.152V306.325V306.498L518.488 312.372L518.316 312.545H518.143L512.096 314.618L507.949 319.456L507.777 319.628H507.604L492.054 320.319L484.28 326.712L484.107 326.885H483.934H478.924L478.405 340.188V340.361L472.186 349L476.159 357.293L491.19 358.329H491.363V358.502L498.447 364.031L498.62 364.204V364.376L498.965 371.46L501.384 373.879L518.488 374.743H518.661L518.834 374.915L524.19 381.653V381.826L524.708 392.711L527.645 396.512V396.685V396.857L527.473 403.941H538.876H539.048V404.114L549.415 413.444L563.582 419.663H563.755V419.836L569.111 428.475L578.268 434.176L587.77 435.04L595.372 429.339L595.718 429.166L595.89 429.511L602.974 435.904L610.23 435.731H610.403L610.576 435.904L615.932 443.851L618.696 444.024H618.869L619.042 444.197L624.225 449.38L634.937 435.731L635.628 426.92V426.747L642.712 416.899L641.502 408.951L633.382 402.904L633.209 402.732V402.559L635.282 390.983L629.926 383.554H629.754V383.381L631.481 367.313L624.743 358.502L624.57 358.329V358.156L627.335 350.036L624.743 343.644L624.398 343.298L624.916 343.125L633.727 340.707L637.356 331.377L635.455 320.319L626.298 318.073H626.125V317.901L617.66 306.843L617.487 306.67L617.66 306.498L619.215 299.76L619.387 299.587H619.56L632 293.885L633.382 288.875L628.026 277.645V277.472V277.299L629.408 270.043V269.697H629.754L635.11 268.833L630.099 257.776H629.926V256.912Z" fill="#1B325E"/>
<path fill-rule="evenodd" clip-rule="evenodd" d="M441.951 525.399L448.343 525.227L453.526 534.038L457.673 534.729L457.846 534.556L459.228 530.928V530.755H459.4L466.657 523.845L467.866 518.489V518.316H468.039L472.531 513.305V513.133L472.877 513.305L478.405 514.342L479.788 512.096L480.824 508.122L479.269 503.976L474.432 502.075H474.259V501.73L473.568 499.311L473.395 498.965L473.568 498.793L475.814 496.201L476.505 489.29V489.117L476.678 488.945L484.625 481.17L484.971 480.997L485.316 481.17L489.636 485.662L489.981 486.007L489.808 486.18L487.39 489.636L490.499 490.327H490.672L498.62 496.028L504.84 495.164H505.012L510.887 498.447L516.415 498.62L524.19 493.437L510.541 483.243H510.368V483.07L503.803 470.285L498.965 459.401L495.164 458.537L487.217 455.254L487.044 455.081L483.07 451.28L481.861 454.39L481.688 454.736H481.343L475.123 454.563L473.568 456.291H473.395L469.421 458.364L469.249 458.537H469.076L466.139 457.846L464.065 459.401H463.893H459.919H459.746L454.563 457.155L452.49 461.301L452.317 461.474H452.144L445.06 462.856L440.396 470.803V471.149H440.05L427.438 470.631L423.809 478.06L424.155 485.144V485.489H423.809L420.354 486.526L419.317 492.227L422.082 498.793V498.965L423.291 503.285L428.647 505.012H428.82L433.83 509.504L434.003 509.677V509.85L434.176 514.515L441.432 520.907H441.605V521.08L441.951 525.399Z" fill="#1B325E"/>
<path fill-rule="evenodd" clip-rule="evenodd" d="M381.826 517.625L394.439 520.562L401.695 525.054L406.014 521.599L412.234 525.054L433.485 529.028L441.087 525.572L441.26 525.4L440.742 521.426L433.485 515.033L433.312 514.861V514.688L433.14 510.023L428.302 505.704L422.946 504.149L422.601 503.976V503.803L421.391 499.138L418.454 492.4V492.227V492.055L419.663 486.353L413.616 483.589L409.124 485.835H408.779L408.606 485.662L404.978 480.997L397.03 478.233L388.219 480.997L388.737 483.416V483.589L388.564 491.536V491.882H388.392L376.298 500.866L375.952 505.358L385.109 510.714L385.455 510.887L385.282 511.232L381.826 517.625Z" fill="#1B325E"/>
<path fill-rule="evenodd" clip-rule="evenodd" d="M331.895 539.74L334.486 536.284L342.952 535.593L343.643 529.546L347.79 527.3L352.109 527.473L357.292 531.619L360.402 528.682L356.601 522.29L354.701 516.07L359.02 511.405L362.821 510.368L368.695 516.588L380.962 517.452V517.279L384.245 511.232L375.433 505.876L375.088 505.704V505.531L375.433 500.693V500.52L375.606 500.348L387.7 491.363L387.873 483.589L386.836 478.06L383.554 474.95L381.826 475.987H381.653H381.48L378.371 475.296L378.198 475.123L365.413 464.238L363.167 464.757L362.475 469.076V469.249L359.884 474.259L360.229 476.678L362.821 480.306L362.994 480.479L362.821 480.824L361.266 483.934V484.107H361.093L358.847 485.489H358.502L358.329 485.316L353.837 480.997L352.109 479.788L349.518 479.615L346.58 480.997H346.235L346.062 480.824L343.471 478.751L343.298 478.578V478.406L343.125 472.877L340.879 469.94L337.942 469.594L332.586 472.877L331.204 476.851L334.314 483.761L336.905 485.835L348.654 489.636L351.245 488.426L353.319 487.39L353.491 487.217L353.837 487.562L357.12 491.018L357.465 491.363L357.12 491.709L354.701 493.61L354.528 493.782L350.9 494.819L349.518 499.829L349.345 500.002H349.172H346.926H346.753L343.125 498.102L335.869 502.248L331.549 509.677L330.858 514.169V514.515H330.513L325.157 515.724L324.638 519.525L324.12 523.153L332.931 525.918H333.104L333.277 526.091L335.005 530.064L335.178 530.237L335.005 530.41L334.141 533.174V533.347L333.968 533.52L330.685 536.111L331.895 539.74Z" fill="#1B325E"/>
<path fill-rule="evenodd" clip-rule="evenodd" d="M421.909 376.297L419.663 380.098L418.108 383.727L410.852 393.402L399.967 404.114H399.795L390.638 408.26L390.465 412.407L393.402 418.108L393.575 418.281L393.229 418.454L389.428 423.119L388.737 429.166V429.338H388.564L386.146 432.621H385.973L385.8 432.794L377.162 433.139L375.952 438.495V438.668L375.779 438.841L372.151 441.087L371.806 441.432L371.633 441.087L368.177 437.286L363.34 444.888L363.167 445.061H362.994L355.047 445.924L348.309 453.872L349.518 457.673L352.628 460.265L360.23 463.547L362.821 463.893L365.413 463.202H365.586L365.759 463.374L378.716 474.432L381.481 475.123L383.381 474.086L383.727 473.914L383.9 474.086L387.528 477.542L387.701 477.715L388.046 480.133L397.03 477.369H397.203L405.323 480.133L405.496 480.306L408.952 484.798L413.444 482.725L413.616 482.552L413.789 482.725L420.009 485.662L423.292 484.798L423.119 477.887V477.715L426.747 470.113V469.767H427.093L439.878 470.285L444.37 462.511L441.087 457.673L440.914 457.5V457.327L441.433 452.663L442.642 444.197L433.831 438.668V438.495H433.658L432.276 434.522L432.103 434.349L432.276 434.176L437.286 428.129L436.25 422.946L434.522 413.789V413.616L434.695 413.443L438.841 407.569L438.668 400.831L433.831 389.255L425.538 384.418H425.365V384.245L424.155 378.543L421.909 376.297Z" fill="#1B325E"/>
<path fill-rule="evenodd" clip-rule="evenodd" d="M478.06 327.057H473.223L466.139 333.277L465.966 333.45H465.793L459.574 333.795H459.228L459.055 333.623L456.982 330.34L446.789 339.324L445.234 345.371H445.061V345.544L434.176 355.219L422.255 375.434L424.846 378.025V378.198H425.019L426.229 383.899L434.349 388.737H434.522V388.91L439.359 400.658H439.532L439.705 407.742V407.915L439.532 408.087L435.386 413.789L437.113 422.773L438.15 428.129V428.302V428.475L433.14 434.522L434.522 437.977L443.333 443.678L443.506 443.851V444.024L442.296 452.835L441.778 457.327L445.061 462.165L451.799 460.783L454.045 456.464L454.218 456.118L454.563 456.291L459.919 458.537H463.72L465.621 456.982H465.793H465.966L469.249 457.673L472.877 455.6L474.605 453.872V453.699H474.95L481.17 453.872L482.38 450.417L482.725 449.898L483.071 450.244L487.563 454.39L495.337 457.673L499.311 458.537L499.484 458.71L499.657 458.882L504.494 469.767L511.06 482.725L524.881 492.918L532.483 488.599L533.347 483.934V483.762H533.52L538.185 480.652H538.358L543.886 481.343L548.551 466.312V466.139L548.724 465.966L555.289 460.956L555.462 460.783L555.808 460.956L562.891 463.029H563.064L572.567 469.422L587.079 469.594H587.252L587.425 469.767L597.618 477.196L609.712 470.113L610.058 469.94L610.231 470.113L616.451 474.605L623.707 473.741L631.482 470.458L632.864 466.83L624.053 461.647L623.88 461.474V461.301V450.244L618.524 444.888L615.76 444.715H615.414V444.542L609.885 436.595L602.802 436.768H602.629H602.456L595.718 430.202L588.116 435.904H587.943H587.77L578.095 435.04L577.922 434.867L568.593 429.166H568.42V428.993L563.237 420.354L549.07 414.307L548.897 414.134L538.703 404.805H527.128H526.609V404.459L526.782 396.857L524.018 393.229L523.845 393.056V392.883L523.499 381.999L518.316 375.606L501.212 374.57H501.039L498.275 371.978L498.102 371.805V371.633L497.929 364.549L491.018 359.193L475.814 358.156L475.641 357.984L475.469 357.811L471.322 348.999V348.827L471.495 348.654L477.542 340.015L478.06 327.057Z" fill="#1B325E"/>
<path fill-rule="evenodd" clip-rule="evenodd" d="M184.002 231.342L181.929 232.897L180.72 236.179L181.065 246.718V247.064L180.72 247.237L172.945 249.655L172.426 253.284V253.629H172.081L169.489 253.975L168.798 256.566L168.625 256.739L167.589 257.776L170.18 260.54L175.191 264.168L184.866 266.587L185.039 266.76L188.322 269.697L197.824 270.388L198.515 266.933V266.76L200.416 265.378L200.761 265.205L200.934 265.378L205.253 268.488H205.426V268.66L206.463 272.634L211.646 276.953L216.138 276.608H216.311L216.483 276.781L223.394 283L223.74 279.718L222.53 275.744L219.42 272.289L219.248 272.116L219.42 271.77L222.358 267.105L221.839 261.922L219.075 256.393H218.902L219.075 256.221L219.766 252.42L217.002 252.074L216.829 251.901L216.656 251.729L216.138 249.137L211.3 248.964H211.127L210.955 248.792L209.572 246.2L209.4 246.027L209.572 245.854L210.782 243.608L210.436 240.498L206.808 239.289L205.771 240.844L205.599 241.017L205.253 240.844L202.834 240.671H202.662L202.489 240.498L200.07 238.252L195.923 238.771H195.578V238.598L193.159 234.451L190.568 233.242L185.903 235.488L185.384 235.661L185.212 235.315L184.002 231.342Z" fill="#1B325E"/>
<path fill-rule="evenodd" clip-rule="evenodd" d="M232.724 292.157L241.881 298.032L245.509 297.859H245.682L245.854 298.032L250.174 303.388L250.346 303.56L250.174 303.733L248.1 311.335L253.629 316.691L268.66 317.382H268.833L278.681 323.429H278.854V323.602L285.246 335.523L295.786 341.57L302.869 339.842L303.042 339.67L303.215 339.842L306.325 342.952L311.335 337.769L306.843 333.623L306.67 333.45L306.843 333.277L307.88 330.34L308.052 330.167H308.398L314.79 330.513L321.874 325.848V321.01L317.036 318.764L316.691 318.592L316.864 318.246L318.419 314.099L313.927 312.544L310.989 313.927L310.644 314.099L310.471 313.754L306.843 304.77L298.204 304.424H298.032H297.859L292.33 298.032L287.147 294.749V294.576L282.137 289.911H281.964L267.278 273.153L267.105 272.98V272.807L268.315 264.341V264.168L273.843 257.949L270.215 256.739H269.87V256.394V250.692H265.55L262.441 253.629V253.802L262.268 253.629L255.875 253.456L255.702 253.284L252.765 250.174H250.001L245.854 251.556L239.116 256.566L234.797 265.723L234.624 265.896H234.451L227.195 265.378L223.049 267.451L220.284 271.943L223.221 275.226L223.394 275.399L224.603 279.545V279.718L224.258 283.346H231.342H231.687L231.86 283.692L232.724 292.157Z" fill="#E46450"/>
<path fill-rule="evenodd" clip-rule="evenodd" d="M182.793 210.609L178.474 211.127L171.39 216.483L167.416 222.185L159.469 221.666L154.631 229.614L149.102 230.305L148.93 236.352L140.464 241.708L140.982 249.655L144.265 253.975L140.464 258.639L141.328 262.44L146.856 263.823L147.893 269.524L146.165 272.461L146.684 272.634L150.139 271.597H150.312L150.485 271.77L152.385 272.634L159.296 271.425L162.06 267.105L163.615 260.713V260.54L167.935 256.221L168.798 253.456V253.111H169.144L171.563 252.938L172.081 249.31V248.964H172.427L180.201 246.373L179.856 236.179V236.006H180.029L181.238 232.551V232.378H181.411L183.83 230.305L186.421 222.53L183.139 217.347V217.174L182.793 210.609Z" fill="#1B325E"/>
<path fill-rule="evenodd" clip-rule="evenodd" d="M225.468 199.552L218.038 199.897L208.881 203.18L208.363 210.609L209.227 214.064L206.635 216.31L204.562 211.127L200.934 210.782L195.232 205.426L188.322 209.918L183.657 210.436L183.83 217.001L187.285 222.357V222.53V222.703L184.693 230.65L185.903 234.451L190.222 232.378L190.568 232.205L190.74 232.378L193.678 233.76H193.85V233.933L196.096 237.907L200.07 237.389H200.243L200.416 237.561L203.007 239.807L205.253 240.153L206.29 238.598L206.463 238.252L206.808 238.425L210.955 239.807L211.3 239.98V240.153L211.646 243.608V243.781H211.473L210.436 246.027L211.646 248.273H216.483H216.829V248.619L217.52 251.21L220.284 251.556L220.803 251.729L220.63 252.074L219.766 256.221L222.53 261.577L222.703 261.749L223.222 266.587L226.85 264.514H227.022L234.106 265.032L238.425 256.048L238.598 255.875L245.336 250.865H245.509V250.692L249.828 249.31L255.875 249.483L258.985 246.891L253.111 239.462L249.483 238.771H249.31L249.137 238.425L247.41 232.724L245.164 232.897L244.818 236.352L244.645 236.87H244.3L242.399 236.352H242.226V236.179L240.671 233.76L238.944 234.279L238.598 238.425V238.944L238.253 238.771L235.661 238.252H235.488L235.316 238.08L233.933 234.97L226.85 235.143H226.504V234.97L223.567 230.65H216.829H216.656L216.483 230.478L214.756 228.232L214.41 228.059L214.756 227.713L226.159 213.892L225.468 199.552Z" fill="#1B325E"/>
<path fill-rule="evenodd" clip-rule="evenodd" d="M324.984 171.39L326.712 159.814L329.476 163.788L328.439 171.908L331.722 178.992L332.586 191.086L337.424 198.17L338.46 205.599L356.083 216.311L366.968 214.237L375.088 203.18L377.334 191.431L373.706 177.437L374.224 157.223L371.978 149.793L366.277 140.809L365.413 133.726L367.831 132.171L371.287 136.835L374.57 134.589L371.46 128.542L359.538 120.422L342.434 118.867L338.979 121.286L330.34 126.296L330.686 133.034L324.811 142.537L313.236 142.71L309.435 147.547L317.9 158.778V158.95V159.123L316.518 165.861L323.602 169.317L323.775 169.489L324.984 171.39Z" fill="#1B325E"/>
<path fill-rule="evenodd" clip-rule="evenodd" d="M303.906 218.384L303.387 214.756L304.078 211.473L301.141 207.499L303.733 202.489L312.199 192.123L319.11 189.877L323.256 182.966L324.638 172.772L323.083 170.008L316 166.38L315.654 166.207V165.861L317.036 159.123L308.916 148.239L299.241 160.333L294.23 160.16L288.011 164.479L283.519 164.134L281.618 168.626L279.718 172.599L276.089 175.191L277.99 178.992L275.571 181.584L267.278 180.201L265.032 188.149L263.477 200.07L258.467 202.143L236.352 199.206L226.331 199.552L226.677 205.944L232.033 204.908H232.205L239.289 205.944H239.462L239.634 206.117L242.399 210.091H242.572V210.264L242.399 215.274V215.447H242.226L239.807 218.384L240.153 223.913L239.462 228.75L239.289 228.923V229.096L235.661 231.86L234.624 234.452L236.006 237.389L237.907 237.907L238.08 233.933V233.588H238.425L240.844 232.897L241.189 232.724L241.362 233.07L242.744 235.661L243.954 235.834L244.299 232.551L244.472 232.206H244.818L247.755 231.86H248.1V232.206L250.001 238.08L253.456 238.598L253.629 238.771H253.802L259.331 246.2L260.194 243.781L259.676 236.871V236.698L262.268 231.687V231.515L271.597 221.667L271.77 221.494H271.943L277.299 222.703L277.472 222.876L277.644 223.049L279.372 226.159V226.331L278.508 231.687V231.86L278.335 232.033L274.362 235.834L267.624 243.436L265.896 249.828H270.388H270.733V250.174V256.048L274.362 257.258L276.953 254.493L277.126 254.321H277.299H280.581L281.964 248.273V248.101L282.136 247.928L288.183 241.535L286.801 239.117V238.944L284.728 235.661V235.488V235.316L286.11 230.305L286.283 230.132L292.33 224.085L292.848 220.976V220.457L293.367 220.63L297.513 221.667L300.105 222.185L303.215 218.729H303.387V218.557L303.906 218.384Z" fill="#1B325E"/>
<path fill-rule="evenodd" clip-rule="evenodd" d="M398.93 263.996L390.465 274.88L393.402 279.372L393.574 279.545L393.402 279.718L391.501 283.173L392.883 288.875L393.056 289.22L392.711 289.393L387.527 292.503H387.182H387.009L380.098 288.011L373.533 288.356H373.187V288.011L372.151 283.173L355.565 270.388L353.664 273.153L358.329 280.754V280.927V281.1L356.947 287.493L356.774 287.665L352.973 291.639L354.701 294.749V294.922L355.046 298.204V298.55L354.701 298.723L348.135 298.896L342.952 305.634L342.779 309.607L348.826 312.199L351.418 309.089H351.591L351.764 308.916L357.465 307.016L357.811 306.843L357.983 307.189L361.612 314.445L361.784 314.791L361.612 314.963L347.963 325.848L347.79 331.722V331.895L347.617 332.068L342.779 335.696L342.607 335.869L342.434 335.696L336.56 333.277L332.24 336.733L319.801 350.727L321.01 353.664V353.837V363.167L323.083 364.894L328.267 359.02L328.439 358.675L328.785 358.847L344.68 365.067L350.209 362.476L353.319 354.701L353.491 354.528H353.664L364.376 355.565H364.549L372.323 364.376L380.962 368.868L392.883 370.25L397.721 367.659L397.894 367.486L398.239 367.659L411.197 378.198L419.145 379.407L433.485 354.701L433.658 354.528L444.369 345.026L446.097 338.979V338.806L456.809 329.303L457.155 328.958L457.5 329.476L459.746 332.932L465.62 332.586L472.704 326.366L472.877 326.194H473.049L483.761 326.021L491.709 319.455H491.882L507.431 318.764L511.405 314.099L511.578 313.927H511.75L517.797 311.853L521.426 306.152L519.007 298.377V298.204V298.032L521.944 293.021L519.007 292.503L516.934 295.44V295.613H516.588H512.96L508.295 299.932L508.122 300.105H507.949L502.248 298.723L497.929 303.733L497.756 303.906H497.583L484.625 304.943H484.452L428.474 265.032L423.118 266.587V266.76H422.946L398.93 263.996Z" fill="#1B325E"/>
<path fill-rule="evenodd" clip-rule="evenodd" d="M313.581 202.834L315.309 204.735L317.728 203.18L317.036 200.415L315.136 199.033L313.754 200.934L313.581 202.834Z" fill="#1B325E"/>
<path fill-rule="evenodd" clip-rule="evenodd" d="M481.343 209.054L484.107 206.981V202.143L480.824 201.452L481.343 209.054Z" fill="#E46450"/>
<path fill-rule="evenodd" clip-rule="evenodd" d="M527.818 276.781L523.499 268.833L512.096 256.567H503.63L502.421 261.577L502.248 269.006L496.201 272.634L492.745 271.943L490.499 275.399L486.18 271.943L491.19 267.451V262.441L475.123 262.268L467.348 256.394L455.081 257.603L450.762 251.729L458.018 251.038L461.819 243.609L452.144 241.363L447.652 246.719L445.406 242.745L420.527 236.525L417.417 239.808L413.789 236.352L400.831 243.954L393.92 237.389L395.993 231.688L393.92 225.813L402.04 223.049L409.469 228.232L413.098 222.358L412.925 211.819L403.077 200.934L400.14 211.473L386.491 220.285L385.454 227.023L378.889 232.897L381.48 246.546L388.564 257.085L395.129 257.949H395.302L395.475 258.122L398.93 263.305L422.946 265.896L428.474 264.169L428.647 263.996L428.82 264.169L484.798 304.079L497.237 303.042L501.73 298.032L501.902 297.859H502.075L507.777 299.241L512.614 294.922V294.749H512.787H516.415L518.488 291.812V291.639H518.834L522.289 292.33L525.227 287.147L522.289 281.791L522.117 281.446L522.289 281.273L527.818 276.781Z" fill="#E46450"/>
<path fill-rule="evenodd" clip-rule="evenodd" d="M507.949 253.284L502.939 253.802L498.965 247.237L500.002 241.19L506.395 239.635L508.122 246.546L507.949 253.284Z" fill="#E46450"/>
<path fill-rule="evenodd" clip-rule="evenodd" d="M430.548 222.358L434.349 227.368L443.506 227.714L444.542 224.258L444.024 219.075L439.186 213.892L432.276 216.311L430.548 222.358Z" fill="#1B325E"/>
<path fill-rule="evenodd" clip-rule="evenodd" d="M498.447 229.096L500.521 209.054L502.076 201.452L508.641 194.369L516.589 191.604L519.871 187.112L517.971 181.583L523.672 185.384L529.028 184.866L530.41 180.892L533.693 181.065L534.038 177.091L538.185 178.819L539.049 174.845L542.159 178.128L544.578 175.018L545.441 170.353L549.761 173.463L552.698 170.872L558.745 172.081L563.755 166.38L602.283 165.516L611.613 160.505L612.65 153.767L608.676 148.93L599.346 151.348L597.791 154.804L582.069 153.422L575.158 147.547L569.111 151.003L563.064 148.411L555.462 153.422H549.07L545.96 156.013L541.64 151.521L539.567 160.851L534.73 161.024L534.211 164.825L522.463 168.453L518.143 166.552L515.552 169.835L519.007 173.118L514.17 177.61L506.568 174.5L505.531 180.374L500.002 180.028L499.83 184.521L492.055 188.494L487.39 186.939L482.034 190.913L481.861 196.615L486.872 201.625L487.044 209.4L482.38 214.065L486.008 222.185L490.327 222.703L490.5 226.504L495.338 227.541L498.447 229.096Z" fill="#E46450"/>
<path fill-rule="evenodd" clip-rule="evenodd" d="M378.198 233.588L371.46 239.808L368.35 233.933L372.842 232.897L367.14 222.358L358.502 223.74L350.036 220.803L339.497 222.358L333.623 237.043L329.303 234.625L323.256 220.284L324.12 209.227L314.099 210.436L311.508 219.939L315.654 225.122L311.681 230.478L305.115 226.85L304.079 219.248L303.733 219.421L300.45 222.876L300.278 223.049H300.105L297.34 222.531L293.539 221.494L293.021 224.431V224.604L286.974 230.651L285.592 235.488L287.492 238.598L289.22 241.363V241.708L289.047 241.881L282.828 248.446L281.445 254.839L281.273 255.184H280.927H277.472L274.88 258.122L269.006 264.687L267.969 272.634L282.655 289.22L287.665 294.058L292.848 297.341H293.021L298.377 303.733L307.188 303.906H307.534V304.252L310.989 313.063L313.754 311.854L313.927 311.681V311.854L319.11 313.409L319.455 313.581L319.283 313.927L317.728 318.073L322.392 320.492H322.738V320.838V325.675L327.403 324.812H327.748L327.921 324.984L331.722 329.822H331.895V329.995L332.413 335.696L336.214 332.413H336.387H336.56L342.607 334.832L346.926 331.55L347.272 325.503V325.33L347.444 325.157L360.748 314.618L357.465 307.88L352.109 309.78L349.345 313.063L349.172 313.236L348.827 313.063L342.088 310.299H341.916V309.953L342.261 305.461V305.288L347.617 298.205V298.032H347.963L354.182 297.859L353.837 294.922L351.936 291.812L351.764 291.467L352.109 291.294L356.083 287.147L357.465 280.927L352.8 273.325L352.628 273.153L352.8 272.807L355.046 269.524L355.392 269.179L355.737 269.524L372.669 282.482L372.842 282.655V282.828L373.878 287.493L380.271 287.147H380.444V287.32L387.182 291.639L392.02 288.875L390.81 283.346L390.637 283.173L390.81 283.001L392.538 279.545L389.601 275.053L389.428 274.708L389.773 274.535L398.067 263.65L394.784 258.813L388.219 257.949H388.046V257.776L380.789 246.891V246.719H380.617L378.198 233.588Z" fill="#E46450"/>
<path fill-rule="evenodd" clip-rule="evenodd" d="M122.495 421.909V424.155L115.412 423.982L112.82 427.956L109.192 428.475L104.873 436.076L97.6162 438.841L92.4331 431.239L80.339 429.684L74.6375 435.558L86.9044 442.642L83.2761 445.233L76.8836 441.432L73.2554 444.197L75.5014 448.516H79.8207H80.1663V448.689L85.5222 455.254L85.6949 455.427L85.5222 455.6L81.7212 463.202L86.7316 469.594L86.9044 469.767V470.113L85.6949 472.531L85.3494 477.542L88.2865 481.343L91.2237 478.06L91.3964 477.887H91.5692L96.234 479.615L97.9618 476.851L98.1345 476.505L98.4801 476.678L102.281 478.233L102.627 478.406V478.578V484.28L106.946 486.353L107.291 486.526V486.871V492.227L109.537 496.028L115.066 495.51L116.794 492.227L116.967 492.055H117.139H126.124L131.48 486.008L131.134 483.07L126.124 482.552L125.778 482.379V482.034L125.605 477.887L120.94 471.322L120.768 471.149V470.976L123.359 462.165L120.249 457.5L120.077 457.155L120.422 456.982L126.987 453.181L127.333 453.008L127.506 453.354L129.925 455.6L134.417 455.427L137.181 450.071L136.144 441.087V440.914L136.317 440.741L143.401 436.076L142.191 425.192L136.663 424.846L132.689 427.611L132.516 427.783L132.343 427.611L127.851 424.846L122.495 421.909Z" fill="#1B325E"/>
<path fill-rule="evenodd" clip-rule="evenodd" d="M169.662 488.772L177.264 486.18L178.474 480.306L184.866 476.678L191.95 474.95L194.369 474.259L194.196 464.584L189.877 463.72H189.704V463.547L187.631 460.61L187.458 460.437V460.264L187.285 454.736L184.693 455.945H184.521L181.238 455.6H180.72L180.892 455.254L181.065 451.108V450.935L181.238 450.762L184.521 446.961V441.778L177.091 434.694L172.772 433.658H172.599L169.662 429.684L169.49 429.511L169.144 423.982L162.924 421.736H162.751L162.579 421.564L159.987 416.38L156.704 417.417H156.532L149.966 416.553L149.275 420.872V421.045L149.102 421.218L143.055 425.019L144.265 436.249V436.595L144.092 436.767L137.008 441.26L137.872 450.071L138.045 450.244H137.872L135.108 455.945L134.935 456.118H134.762L129.752 456.463H129.579H129.406L127.16 454.045L121.286 457.5L124.05 461.819L124.223 461.992V462.165L121.632 470.976L126.124 477.369L137.181 478.578L138.391 475.296L138.563 475.123H138.736L142.537 475.468H142.883V475.814L144.092 481.343L148.411 482.034L152.212 479.615L152.385 479.442L152.558 479.615L165.861 482.379H166.034L166.207 482.552L169.662 488.772Z" fill="#1B325E"/>
<path fill-rule="evenodd" clip-rule="evenodd" d="M136.835 540.258L143.919 542.85L162.751 542.331L161.196 534.902L166.034 534.038L169.662 513.824L166.379 509.505L161.714 508.295L162.406 504.494L168.28 499.138L163.097 491.882L165.515 490.5L168.798 489.118L165.515 483.071L152.558 480.306L148.929 482.552L151.348 488.772L151.521 488.945L151.348 489.118L148.929 500.866L152.039 506.395V506.568V506.74L148.929 515.552L150.139 521.08L150.311 521.771L149.62 521.599L144.092 521.08L141.327 522.29L140.982 522.463L140.809 522.117L138.736 519.18L137.008 521.253L139.945 528.164V528.51L139.772 528.682L135.799 531.965L132.17 533.865L136.835 540.258Z" fill="#1B325E"/>
<path fill-rule="evenodd" clip-rule="evenodd" d="M121.977 543.195L129.061 543.368L135.799 540.258L131.307 533.865L130.961 533.52L131.479 533.347L135.28 531.274L138.909 528.337L136.144 521.426L135.972 521.253L136.144 520.908L138.39 518.143L138.736 517.798L139.081 518.316L141.327 521.426L143.919 520.216H144.092L149.275 520.735L148.066 515.724V515.552L151.175 506.567L148.066 501.039V500.866L150.484 488.945L148.238 482.725L143.746 482.207H143.401V481.861L142.191 476.16L139.081 475.987L137.872 479.097V479.442H137.526L126.469 478.233L126.642 481.688L131.652 482.379H131.998V482.725L132.343 486.18V486.353H132.171L126.642 492.746L126.469 492.918H126.296H117.485L115.584 496.028V496.201L115.412 496.374L109.365 496.892H109.192L109.019 496.719L106.428 492.573V492.4V487.044L101.935 484.971L101.763 484.798V484.625V478.924L98.48 477.542L96.925 480.479L96.7523 480.652H96.4067L91.5691 478.751L88.9775 481.861L91.9147 485.662L95.1973 485.144H95.3701L95.5429 485.316L97.6161 488.254L101.935 489.463L102.108 489.636L102.281 489.809L104.009 494.819L108.501 502.248V502.421V502.594L107.291 509.85L111.956 518.143V518.316L113.511 524.881V525.054L113.166 531.792L120.249 538.876H120.422L121.977 543.195Z" fill="#1B325E"/>
<path fill-rule="evenodd" clip-rule="evenodd" d="M78.4383 566.519L76.0195 568.938L76.5378 575.676L82.7576 584.833L82.2393 594.336L81.2027 598.828L86.9042 605.738L89.4957 604.702L91.0507 601.937L94.5061 603.665L98.1343 604.875L102.454 602.11V590.189L105.391 573.257L116.103 562.891L117.139 552.006L115.93 547.342L121.113 543.368L119.558 539.394L112.82 532.483L110.228 534.384L110.056 534.556H109.883L102.626 534.211L98.6527 537.321L100.035 540.085L100.208 540.431L99.8621 540.776L96.2339 542.849L100.726 549.415L105.736 550.279H105.909V550.624L107.637 556.498V556.844L107.291 557.017L103.49 558.572H103.318L99.5165 558.399L94.6789 567.729L94.5061 568.247L93.9878 567.901L90.1868 564.791L88.1136 567.21L87.9408 567.383H87.768L78.4383 566.519Z" fill="#1B325E"/>
<path fill-rule="evenodd" clip-rule="evenodd" d="M76.3652 558.053L78.093 562.373L78.784 565.828L87.5954 566.519L89.8414 563.928L90.187 563.582L90.5325 563.755L94.1607 566.865L98.9984 557.708V557.535H99.3439L103.318 557.708L106.6 556.326L105.218 550.97L100.553 550.106H100.381L100.208 549.933L93.8152 540.776L88.8048 540.431L86.386 541.467L89.1504 551.834V552.179L88.8048 552.352L76.3652 558.053Z" fill="#1B325E"/>
<path fill-rule="evenodd" clip-rule="evenodd" d="M73.4282 553.734L73.601 555.635L75.847 557.535L88.1138 551.661L85.5223 541.813L83.2762 542.85L81.203 549.588V549.761H81.0302L77.9203 552.352H77.7475L73.4282 553.734Z" fill="#1B325E"/>
<path fill-rule="evenodd" clip-rule="evenodd" d="M63.9258 539.567L64.2713 547.342L73.2555 551.661L73.4282 552.87L77.5748 551.488L80.5119 549.242L82.5852 542.504V542.331L82.7579 542.158L87.9411 539.912L83.9673 536.802L82.4124 539.394L82.2396 539.567H82.0668L71.7005 536.975L64.0986 539.394L63.9258 539.567Z" fill="#1B325E"/>
<path fill-rule="evenodd" clip-rule="evenodd" d="M57.3604 524.017L62.0252 529.373L62.198 536.457L63.7529 538.703L71.7004 536.111H71.8732L81.894 538.703L85.0039 533.174L83.6217 528.509H78.9568H78.7841H78.6113L69.4544 520.043L62.7163 519.871L57.3604 524.017Z" fill="#1B325E"/>
<path fill-rule="evenodd" clip-rule="evenodd" d="M45.6118 502.421L51.1405 511.751V517.279L56.6692 523.499L62.3707 519.007H62.5435H62.7162L69.1088 519.18L68.7633 512.442V512.269L68.936 512.096L72.3915 509.85L67.5539 500.52L65.8261 503.803L65.6534 504.149H65.4806L59.4336 503.458H59.2608V503.285L55.9781 498.793L45.6118 502.421Z" fill="#1B325E"/>
<path fill-rule="evenodd" clip-rule="evenodd" d="M35.2452 443.16L35.7635 451.108L33.3447 454.045L34.5541 457.5L38.1823 460.265L38.0096 465.966L40.0828 474.95L39.3917 483.243L37.8368 497.065L39.5645 499.484L43.1927 497.929L45.6115 501.903L56.3234 498.102L56.6689 497.929L56.8417 498.102L60.1244 502.594L65.6531 503.112L69.6268 495.165V494.992H69.7996L73.9461 493.264L72.3912 490.845L72.2184 490.673L72.3912 490.5L74.81 486.18L72.2184 483.934L71.8729 483.589L72.2184 483.243L75.3283 480.133L75.6739 477.542V477.369L75.8466 477.196L79.3021 475.641L79.6476 475.469L79.8204 475.814L82.0664 479.788L85.0036 477.369L85.3491 472.186L86.5585 469.94L81.3753 463.547L81.2026 463.375L81.3753 463.202L85.3491 455.6L80.3387 449.38H75.8466H75.5011L75.3283 449.207L72.564 443.851L64.2709 436.422L63.0615 447.307L58.5694 445.061L49.9308 445.579L46.8209 449.726L40.4284 439.186L35.2452 443.16ZM43.711 492.746L43.3655 487.39V487.044V486.699H43.711H44.0566L49.5853 486.18V482.898V482.725V482.552L49.7581 482.379L49.9308 482.207L56.1506 477.542L52.1769 475.123L47.1665 469.249L46.9937 469.076L46.8209 468.903V468.73V468.558L47.512 463.893V463.375V462.856L48.0303 463.029L48.5487 463.202L52.868 464.757H53.0407H53.2135V464.929V465.102L56.6689 470.631H61.5066H62.1976H62.5432V470.977V471.322L62.8887 476.332L66.3442 479.27L66.5169 479.442L66.6897 479.615V479.788V479.961L66.3442 486.872V487.044V487.217V487.39V487.563L61.3338 494.128L60.6427 494.992L59.9516 495.856L59.7788 494.819L59.6061 493.782L58.915 488.081L51.1402 496.72L50.9675 496.892L50.7947 497.065L50.4492 496.892L50.1036 496.72L44.2294 493.955L44.0566 493.782L43.8838 493.61V493.437L43.711 492.746Z" fill="#E46450"/>
<path fill-rule="evenodd" clip-rule="evenodd" d="M84.8311 478.233L81.7212 480.824L81.3757 481.17L81.0302 480.652L78.7841 476.678L75.847 478.06L75.6742 480.652L75.5015 480.824L72.7371 483.589L75.1559 485.835L75.3287 486.008V486.353L72.9099 490.845L74.6376 493.437L74.8104 493.955L74.4648 494.128L69.8 495.856L68.0723 499.657L73.4282 509.85L73.601 510.023L73.2554 510.369L69.6272 512.615L69.9728 519.525L79.1297 527.646H83.9673H84.3128V527.991L85.8678 533.002L86.0405 533.174L85.8678 533.347L84.3128 535.939L88.8049 539.567L93.9881 539.913H94.1608L94.3336 540.085L95.8886 542.159L98.9984 540.258L97.6163 537.494V537.148L97.789 536.975L102.108 533.52L102.281 533.347H102.454L109.883 533.693L112.302 531.619L112.647 525.054L111.092 518.662L106.428 510.196V510.023V509.85L107.637 502.594L103.318 495.165V494.992L101.417 490.327L97.2707 489.118L97.098 488.945L95.0247 486.008L91.9148 486.526L91.5693 486.699L91.3965 486.353L84.8311 478.233Z" fill="#1B325E"/>
<path fill-rule="evenodd" clip-rule="evenodd" d="M44.2295 487.39L44.575 492.746L50.4493 495.51L58.9151 486.181L59.6062 485.489V486.353L60.4701 493.091L65.4804 486.526L65.826 479.615L62.1978 476.505H62.025V476.333L61.6795 471.149H56.6691H56.3235V470.977L52.6953 465.102L48.2032 463.547L47.6849 468.385L52.6953 474.259L57.1874 477.024L57.7057 477.369L57.1874 477.715L50.4493 482.725V486.353V486.872H50.1037L44.2295 487.39Z" fill="#1B325E"/>
<path fill-rule="evenodd" clip-rule="evenodd" d="M576.54 662.062L577.404 669.837L584.66 673.983L584.833 681.585L592.09 683.14L595.027 686.768L603.147 682.449L604.702 688.151L609.885 695.753L618.005 696.616L620.424 691.261L631.309 690.742L638.565 685.386L637.356 677.439V677.266L637.529 677.093L642.193 673.983L635.628 662.235V662.062L634.937 654.46L629.063 658.952L628.717 659.125L628.544 658.779L623.188 652.041L623.016 651.868V651.696L624.916 643.575L621.979 640.12L612.995 639.774V639.947H612.649L606.948 641.157H606.775L606.43 640.984L601.765 637.356L601.419 641.157V641.329V641.502L596.927 648.24L596.754 648.413H596.582L588.289 647.722L581.723 649.968L579.132 653.596L583.278 655.669H583.451V655.842L584.66 660.68L584.833 661.198H584.315L576.54 662.062ZM625.262 642.884L630.272 641.157L633.9 639.256L640.12 633.036L638.738 629.063V628.89V628.717L639.775 624.225L638.22 618.351V618.178L638.392 618.005L642.539 612.822L644.612 606.429L638.565 604.356H638.392V604.183L637.183 600.382V600.21L637.356 600.037L642.193 593.817L639.602 587.597V587.425V587.252L640.811 582.414V582.241L640.984 582.069L647.377 579.132L650.486 576.022L643.748 563.064V562.891V562.718L644.785 558.226L637.529 561.336H637.356H637.183L627.853 557.189L617.141 558.744L613.168 563.582L612.995 563.755H612.822H601.765L601.592 593.299L605.566 592.78H605.911V593.126L606.602 599L612.131 604.875L614.032 610.058L619.215 613.686L619.56 614.031L619.215 614.377L615.241 619.042L618.351 622.497L618.524 622.67V622.843L616.969 628.89V629.063L616.796 629.235L612.822 631.827L612.477 638.911L621.633 639.256H621.806L621.979 639.429L625.262 642.884Z" fill="#1B325E"/>
<path fill-rule="evenodd" clip-rule="evenodd" d="M519.525 595.027L530.41 647.204L536.284 646.34L540.431 640.466L544.232 642.021L545.268 648.068L557.708 654.978L567.383 651.35L572.566 653.596L576.367 661.198L583.451 660.334L582.414 656.188L578.095 653.942L577.75 653.769L577.922 653.251L581.032 649.104H581.205L587.943 646.685H588.116L596.236 647.549L600.555 640.984L600.901 636.492L601.074 635.801L601.592 636.319L606.775 640.293L611.958 639.256L612.304 631.654V631.481L612.477 631.309L616.45 628.717L618.005 623.016L614.723 619.387L614.377 619.215L614.723 618.869L618.524 614.377L613.686 610.749H613.513V610.576L611.613 605.393L605.911 599.346V599.173L605.22 593.472L601.247 593.99L596.236 598.655L596.063 598.828H595.891L586.215 597.791L583.278 600.037L582.933 600.21L582.76 600.037L579.823 597.791L571.357 605.911L571.011 606.257L570.839 605.911L564.101 599.519V599.346L562.891 594.508L557.535 587.425L535.248 595.027H535.075L530.237 592.953L528.164 594.508L527.818 594.681L527.646 594.508L524.19 592.262L519.525 595.027Z" fill="#1B325E"/>
<path fill-rule="evenodd" clip-rule="evenodd" d="M502.594 572.739L514.169 573.085L509.505 578.095L519.18 594.163L523.845 591.399L524.19 591.226L524.363 591.399L527.818 593.645L530.064 592.09L530.237 591.917L530.41 592.09L535.248 594.163L557.535 586.388H557.881L558.054 586.561L563.582 594.163H563.755V594.336L564.792 599.001L571.011 605.048L579.477 596.927L579.65 596.582L579.996 596.927L582.933 599.173L585.87 597.1V596.927H586.043L595.718 597.964L600.728 593.472L600.901 563.582H596.927L591.571 568.247L591.226 568.42L590.88 568.074L588.461 565.137V564.965V564.792L589.153 553.562L572.912 553.043H572.739L572.566 552.871L569.629 547.342L561.163 547.687H560.818V547.342L559.09 541.295L553.907 534.384L525.4 520.908V530.065V530.41H525.227L519.871 533.52L521.426 539.567L521.599 540.085H521.08L514.169 539.74L508.641 541.986L505.531 547.515L506.222 563.928V564.101L502.594 572.739Z" fill="#1B325E"/>
<path fill-rule="evenodd" clip-rule="evenodd" d="M458.537 534.902L461.82 535.766L462.165 541.64L460.092 543.886L461.474 548.033L456.982 553.216L457.846 557.017L467.521 559.263L468.039 564.446L472.704 564.792L476.332 565.656L479.961 569.629L474.777 573.949V577.577L479.961 576.022L484.453 578.441L488.426 577.577L491.882 574.64L501.557 572.912L505.358 563.755L504.667 547.515V547.342L504.84 547.169L508.122 541.295L508.295 541.122L513.824 538.876H513.997L520.562 539.221L519.007 533.52V533.174L519.18 533.002L524.709 529.892V507.086L520.735 502.939L520.562 502.594L520.735 502.421L524.881 497.411L524.536 494.301L516.934 499.484H516.761H516.588L510.714 499.311H510.541L504.84 496.028L498.62 496.892L498.447 497.065L498.274 496.892L490.154 491.018L486.526 490.327H485.835L486.18 489.809L488.945 486.008L484.971 482.034L477.369 489.463L476.678 496.374V496.547L474.432 499.138L474.95 501.384L479.788 503.112L479.961 503.285V503.458L481.516 507.95H481.688V508.123L480.652 512.269V512.442L478.924 515.033L478.751 515.379L478.578 515.206L472.877 514.17L468.73 518.834L467.521 524.018V524.19L467.348 524.363L459.919 531.274L458.537 534.902Z" fill="#1B325E"/>
<path fill-rule="evenodd" clip-rule="evenodd" d="M616.105 475.296L609.885 470.977L597.791 478.06H597.446H597.273L587.079 470.458L572.394 470.285H572.221V470.113L562.546 463.72L555.635 461.82L549.242 466.657L544.577 481.861L544.405 482.207H544.059L538.358 481.516L534.038 484.28L533.174 488.945V489.118L533.002 489.29L525.227 493.782L525.745 497.411V497.583L525.572 497.756L521.599 502.594L525.4 506.568V506.74V506.913V520.044L554.253 533.693H554.425V533.866L559.954 540.776V540.949L561.509 546.823L569.802 546.478H570.148L570.32 546.823L573.257 552.179L589.671 552.698H590.016V553.043L589.325 564.619L591.226 567.21L596.582 562.891L596.754 562.718H596.927H601.247H601.765H612.477L616.623 558.054V557.881H616.796L627.853 556.326H628.026L637.356 560.472L644.785 557.19L645.131 549.588V549.415L645.303 549.242L653.251 543.368L654.115 539.74L647.377 537.494H647.204L642.366 532.483H642.194V532.311L641.33 525.745V525.572L641.502 525.4L650.141 517.97L650.487 513.651L644.785 512.96H644.612L644.44 512.787L638.22 499.657L616.45 496.374L616.105 496.201V495.856V489.809V489.636L619.042 486.008L616.105 475.296Z" fill="#1B325E"/>
<path fill-rule="evenodd" clip-rule="evenodd" d="M644.094 581.551L641.503 582.76L640.293 587.425L643.058 593.645V593.99L642.885 594.163L638.047 600.383L639.084 603.666L645.304 605.912L645.822 606.084L645.649 606.43L643.403 613.341H643.23L639.257 618.524L640.639 624.398H640.811L640.639 624.571L639.602 629.063L641.157 633.037V633.21L640.984 633.382L634.592 639.948H634.419L630.618 641.848L625.608 643.749L623.707 651.523L628.717 657.916L634.764 653.251L635.456 652.733V653.078L646.513 652.387L649.45 644.785V644.44H649.796L654.46 644.785L657.743 637.874V637.702H657.916L663.79 635.456L665.691 631.482V627.163V626.817H665.863L671.219 623.88L670.874 619.215L668.628 612.477L667.591 606.084L662.581 598.655V598.482V598.137L664.654 593.645L661.026 591.226L654.806 591.917H654.633H647.895H647.55V591.744L644.094 581.551Z" fill="#1B325E"/>
<path d="M819.285 422.082L818.939 422.255L818.766 422.082L814.102 418.454H802.699L802.871 417.936L803.563 411.888V411.716V411.543L810.128 403.768L812.028 398.585L807.709 395.648H807.536V389.774L803.908 385.627H803.735L803.908 385.282L805.463 377.334L801.316 374.051L800.798 373.879L801.144 373.533L807.536 366.449L805.29 336.387L797.688 324.984L801.489 323.084L810.473 315.654L810.646 315.482L810.819 315.654L816.175 316.173L818.075 306.843V306.67L820.667 302.697L821.358 297.513V297.341L821.531 297.168L832.588 288.529L827.923 282.828L827.751 282.655V273.498L818.075 259.849L816.693 252.765L813.756 248.965L813.583 248.792L813.756 248.619L813.929 244.645L808.055 247.582L801.316 252.765L791.987 255.53L788.359 261.75L788.704 252.765L807.363 233.415L817.73 214.756L822.567 197.997L808.055 181.583L794.578 181.065L789.741 187.803L784.385 188.84L788.359 177.264L777.301 175.882L780.929 170.699L774.191 164.997L768.144 167.416L758.469 181.756L760.715 190.395L750.349 191.086L750.521 193.677L754.322 199.379L746.893 197.824L743.092 201.452L734.454 199.897L733.417 195.924L721.15 196.269L721.496 203.18L706.81 205.253L696.789 213.201L689.187 213.373L683.486 218.384L681.067 228.405L685.732 237.043L678.648 238.771L659.471 235.661L648.413 235.488L644.958 241.535L644.612 257.258L651.523 264.168L654.979 271.943H645.303L636.838 256.394L630.791 256.739V257.603L636.146 268.833L636.319 269.352L635.801 269.524L630.099 270.388L628.89 277.472L634.073 288.702L634.246 288.875L632.864 294.231V294.576H632.518L620.079 300.278L618.524 306.498L626.644 317.382L635.801 319.628H636.146V319.974L638.22 331.549L637.701 332.932L634.419 341.225L634.246 341.57H634.073L625.607 343.816L628.199 349.863V350.036V350.209L625.435 358.156L632.173 366.968L632.345 367.141V367.313L630.618 383.208L635.974 390.638L636.146 390.81V390.983L634.073 402.386L642.193 408.433V408.606L642.366 408.779L643.576 416.899L643.748 417.072L643.576 417.244L636.492 427.092L635.801 435.904V436.077H635.628L624.743 450.071V461.129L633.728 466.139L633.9 466.484V466.657L632.173 470.804V470.977L632 471.149L623.88 474.605L616.969 475.469L619.906 486.008V486.18V486.353L616.969 489.981V495.51L638.565 498.966H638.738V499.138L645.131 512.096L651.005 512.96H651.35V513.306L651.005 518.316V518.489H650.832L642.193 525.918L643.057 531.965L647.722 536.803L654.806 539.049H655.151V539.567L653.942 543.714V543.886H653.769L645.994 549.761L645.649 557.535V557.881L644.612 562.718L651.35 575.849V576.195L651.178 576.367L647.722 579.823L644.785 581.205L648.24 591.226H654.633L661.026 590.362H661.198L661.371 590.535L665.518 593.126L665.863 593.299L665.69 593.645L663.444 598.309L668.282 605.739V605.911L669.491 612.304L671.737 619.042V619.215L672.083 624.053V624.398H671.91L666.382 627.335V631.654V631.827L664.481 635.974V636.147H664.308L658.434 638.393L655.151 645.131L664.654 651.869L680.376 653.769L687.114 648.241V648.068H687.287L690.915 647.204L691.088 643.576V643.403H691.261L696.789 639.775L696.444 635.974L696.271 635.455H696.617L700.763 634.419L702.145 628.89V628.545H702.491L723.224 626.644L724.26 621.979L712.684 611.613L712.512 611.44V606.603L712.684 606.43L717.868 604.011H718.04L724.606 604.702L725.815 584.488H725.988V584.315L730.134 576.367V576.195H730.307L737.218 575.158L738.6 569.457L731.517 558.399L731.344 558.054L731.517 557.881L737.909 545.96L738.082 545.614H738.255L754.322 544.923L758.642 539.221L758.987 538.703L759.333 539.394L765.38 552.352L768.835 550.97L768.144 543.368V543.195L768.317 543.022L783.521 526.264L784.558 519.698V519.525L792.851 515.724L793.023 516.07L796.652 524.19L803.563 528.337L805.29 522.635V522.463L809.264 518.489L807.709 513.824L804.081 512.787H803.735V512.442L804.081 507.95L804.254 507.777V507.604L809.61 502.075L808.746 497.583L801.316 495.337H801.144V494.992L799.07 488.254L798.898 487.908L799.07 487.735L802.699 482.898L799.416 477.369L799.243 477.024L799.589 476.678L808.4 471.322L813.41 461.474L812.719 453.872L809.437 448.516L809.264 448.343L809.437 447.998L812.719 440.741L810.992 436.422V436.249L810.646 429.338V429.166L810.992 428.993L817.039 426.229H817.211L823.604 424.846L826.368 421.737L824.122 418.972L819.285 422.082Z" fill="#1B325E"/>
<path d="M410.852 379.062H410.679L397.894 368.523L393.229 370.941L393.057 371.114L380.271 369.559H380.444L371.978 365.067H371.806L364.031 356.256L354.01 355.392L351.073 362.648L358.157 372.151V372.324L358.675 379.062V379.407H358.329L346.581 384.418V388.391L349.864 391.156L350.209 391.328L346.408 396.339L343.298 399.794L338.979 411.024H338.806L335.178 414.998L332.932 421.045V421.218H332.759L328.958 425.537L328.785 425.71H328.613L325.157 425.537L324.984 433.83L328.785 433.658H329.304V440.223L337.597 440.741H337.942V441.087L338.288 445.752L341.916 446.615H342.089V446.961L342.607 449.207V449.38L343.125 452.662L344.335 454.217L347.617 453.526L354.528 445.233L354.701 445.061H354.874L362.649 444.197L367.659 436.249L368.005 435.904L368.35 436.249L371.978 440.223L375.088 438.15L376.47 432.621V432.275H376.816L385.455 431.93L387.873 428.993L388.564 422.946V422.773V422.6L392.538 418.108L389.601 412.579V412.407L389.774 407.915V407.742L390.119 407.569L399.449 403.422L410.161 392.883L417.417 383.208L418.627 380.098L410.852 379.062Z" fill="#1B325E"/>
<path d="M31.79 436.249L36.6277 430.721L25.5703 416.381L32.1356 397.894L27.4707 394.093L23.497 396.857L7.4292 385.973L5.5287 389.255L6.04702 402.213L0 408.606L1.55495 417.59L12.094 416.899L23.8425 431.584L31.79 436.249Z" fill="#E46450"/>
</svg>
